#
#
#

mtllib fence.mtl


#
# WoodLog Plank Mesh
#
g WoodLog Plank Mesh


#
# WoodLog Plank Mesh_WoodLog Plank
#
usemtl WoodLog Plank Mesh_WoodLog Plank

v 0.186418 -0.000540 -0.072444
v 0.000000 0.000000 0.000000
v -0.002672 1.495136 0.008045
v 0.175567 1.496383 -0.082670
v 0.258864 0.000000 0.161786
v 0.186418 -0.000540 -0.072444
v 0.175567 1.496383 -0.082670
v 0.266155 1.504842 0.143250
v 0.072447 0.000540 0.234230
v 0.258864 0.000000 0.161786
v 0.266155 1.504842 0.143250
v 0.087917 1.503595 0.233965
v 0.000000 0.000000 0.000000
v 0.072447 0.000540 0.234230
v 0.087917 1.503595 0.233965
v -0.002672 1.495136 0.008045
v 0.175567 1.496383 -0.082670
v -0.002672 1.495136 0.008045
v 0.087917 1.503595 0.233965
v 0.266155 1.504842 0.143250
v 0.258864 0.000000 0.161786
v 0.072447 0.000540 0.234230
v 0.000000 0.000000 0.000000
v 0.186418 -0.000540 -0.072444
v 0.904058 1.176499 1.781497
v 0.905761 0.976586 1.787146
v 0.225038 0.923245 0.104487
v 0.223336 1.123158 0.098838
v 0.712986 1.177014 1.855212
v 0.904058 1.176499 1.781497
v 0.223336 1.123158 0.098838
v 0.055368 1.123674 0.163390
v 0.714611 0.977101 1.860883
v 0.712986 1.177014 1.855212
v 0.055368 1.123674 0.163390
v 0.056992 0.923761 0.169061
v 0.905761 0.976586 1.787146
v 0.714611 0.977101 1.860883
v 0.056992 0.923761 0.169061
v 0.225038 0.923245 0.104487
v 0.223336 1.123158 0.098838
v 0.225038 0.923245 0.104487
v 0.056992 0.923761 0.169061
v 0.055368 1.123674 0.163390
v 0.712986 1.177014 1.855212
v 0.714611 0.977101 1.860883
v 0.905761 0.976586 1.787146
v 0.904058 1.176499 1.781497
v 0.917827 0.600770 1.794148
v 0.919477 0.400775 1.793149
v 0.254713 0.412411 0.100568
v 0.255612 0.612406 0.101567
v 0.728926 0.601286 1.863293
v 0.917827 0.600770 1.794148
v 0.255612 0.612406 0.101567
v 0.071201 0.612922 0.170712
v 0.727959 0.401291 1.862293
v 0.728926 0.601286 1.863293
v 0.071201 0.612922 0.170712
v 0.070232 0.412927 0.169712
v 0.919477 0.400775 1.793149
v 0.727959 0.401291 1.862293
v 0.070232 0.412927 0.169712
v 0.254713 0.412411 0.100568
v 0.255612 0.612406 0.101567
v 0.254713 0.412411 0.100568
v 0.070232 0.412927 0.169712
v 0.071201 0.612922 0.170712
v 0.728926 0.601286 1.863293
v 0.727959 0.401291 1.862293
v 0.919477 0.400775 1.793149
v 0.917827 0.600770 1.794148
v 1.686472 1.214999 3.803503
v 1.699887 1.015573 3.796476
v 1.522479 1.001208 3.865462
v 1.509064 1.200633 3.872489
v 1.693737 0.664797 3.799754
v 1.693429 0.464799 3.800454
v 1.515174 0.465316 3.869726
v 1.515482 0.665314 3.869027
v 1.624435 0.009460 3.591300
v 1.438018 0.010000 3.663745
v 1.440569 1.455370 3.658565
v 1.626362 1.471519 3.586314
v 1.696882 0.010000 3.814362
v 1.624435 0.009460 3.591300
v 1.626362 1.471519 3.586314
v 1.698808 1.472059 3.809375
v 1.510465 0.010540 3.886806
v 1.696882 0.010000 3.814362
v 1.698808 1.472059 3.809375
v 1.513014 1.455910 3.881625
v 1.438018 0.010000 3.663745
v 1.510465 0.010540 3.886806
v 1.513014 1.455910 3.881625
v 1.440569 1.455370 3.658565
v 1.626362 1.471519 3.586314
v 1.440569 1.455370 3.658565
v 1.513014 1.455910 3.881625
v 1.698808 1.472059 3.809375
v 1.696882 0.010000 3.814362
v 1.510465 0.010540 3.886806
v 1.438018 0.010000 3.663745
v 1.624435 0.009460 3.591300
v 0.896372 0.009460 1.754449
v 0.709954 0.010000 1.826893
v 0.713134 1.483065 1.828274
v 0.896760 1.471005 1.749943
v 0.968818 0.010000 1.940866
v 0.896372 0.009460 1.754449
v 0.896760 1.471005 1.749943
v 0.970079 1.421808 1.929397
v 0.782400 0.010540 2.013310
v 0.968818 0.010000 1.940866
v 0.970079 1.421808 1.929397
v 0.786454 1.433867 2.007728
v 0.709954 0.010000 1.826893
v 0.782400 0.010540 2.013310
v 0.786454 1.433867 2.007728
v 0.713134 1.483065 1.828274
v 0.896760 1.471005 1.749943
v 0.713134 1.483065 1.828274
v 0.786454 1.433867 2.007728
v 0.970079 1.421808 1.929397
v 0.968818 0.010000 1.940866
v 0.782400 0.010540 2.013310
v 0.709954 0.010000 1.826893
v 0.896372 0.009460 1.754449
v 1.628089 0.615100 3.613313
v 1.605640 0.418868 3.631890
v 0.946139 0.372111 1.935171
v 0.960478 0.568343 1.916595
v 1.439938 0.651653 3.680315
v 1.628089 0.615100 3.613313
v 0.960478 0.568343 1.916595
v 0.780437 0.604896 1.983596
v 1.427801 0.455421 3.698892
v 1.439938 0.651653 3.680315
v 0.780437 0.604896 1.983596
v 0.767925 0.408664 2.002172
v 1.605640 0.418868 3.631890
v 1.427801 0.455421 3.698892
v 0.767925 0.408664 2.002172
v 0.946139 0.372111 1.935171
v 0.960478 0.568343 1.916595
v 0.946139 0.372111 1.935171
v 0.767925 0.408664 2.002172
v 0.780437 0.604896 1.983596
v 1.439938 0.651653 3.680315
v 1.427801 0.455421 3.698892
v 1.605640 0.418868 3.631890
v 1.628089 0.615100 3.613313
v 1.622247 1.190024 3.618359
v 1.621743 0.990025 3.618555
v 0.963975 0.990025 1.925950
v 0.964478 1.190024 1.925755
v 1.440387 1.190540 3.687504
v 1.622247 1.190024 3.618359
v 0.964478 1.190024 1.925755
v 0.776623 1.190540 1.994899
v 1.437469 0.990541 3.687700
v 1.440387 1.190540 3.687504
v 0.776623 1.190540 1.994899
v 0.776118 0.990541 1.995095
v 1.621743 0.990025 3.618555
v 1.437469 0.990541 3.687700
v 0.776118 0.990541 1.995095
v 0.963975 0.990025 1.925950
v 0.964478 1.190024 1.925755
v 0.963975 0.990025 1.925950
v 0.776118 0.990541 1.995095
v 0.776623 1.190540 1.994899
v 1.440387 1.190540 3.687504
v 1.437469 0.990541 3.687700
v 1.621743 0.990025 3.618555
v 1.622247 1.190024 3.618359
vn -0.408381 -0.002507 -0.912808
vn -0.362208 0.004368 -0.932087
vn -0.453513 -0.009375 -0.891200
vn 0.942585 -0.002087 -0.333960
vn 0.955332 0.004906 -0.295493
vn 0.928243 -0.009078 -0.371863
vn 0.408440 0.002610 0.912781
vn 0.362230 0.009725 0.932038
vn 0.453606 -0.004512 0.891191
vn -0.942513 0.003114 0.334156
vn -0.955307 0.009885 0.295451
vn -0.928109 -0.003662 0.372291
vn -0.021623 0.999353 -0.028748
vn -0.021623 0.999353 -0.028748
vn -0.021623 0.999353 -0.028748
vn -0.001787 -0.999994 0.002859
vn -0.001787 -0.999994 0.002859
vn -0.001787 -0.999994 0.002859
vn 0.927041 -0.002702 -0.374950
vn 0.927041 -0.002700 -0.374950
vn 0.927041 -0.002703 -0.374950
vn -0.008055 0.999564 -0.028404
vn -0.008244 0.999564 -0.028352
vn -0.007865 0.999564 -0.028457
vn -0.932088 0.002703 0.362221
vn -0.932088 0.002698 0.362221
vn -0.932088 0.002708 0.362222
vn 0.008054 -0.999564 0.028407
vn 0.008227 -0.999565 0.028317
vn 0.007881 -0.999563 0.028498
vn -0.358635 -0.029398 -0.933015
vn -0.358617 -0.029415 -0.933021
vn -0.358653 -0.029380 -0.933008
vn 0.359836 0.029398 0.932552
vn 0.359820 0.029380 0.932559
vn 0.359852 0.029416 0.932546
vn 0.931026 0.003568 -0.364936
vn 0.930765 0.009504 -0.365494
vn 0.931253 -0.002367 -0.364365
vn 0.004641 0.999977 0.005065
vn 0.004590 0.999977 0.005078
vn 0.004692 0.999976 0.005051
vn -0.932088 0.002701 0.362222
vn -0.932088 0.002695 0.362221
vn -0.932088 0.002706 0.362222
vn -0.004610 -0.999977 -0.005073
vn -0.004538 -0.999977 -0.005111
vn -0.004683 -0.999976 -0.005035
vn -0.351000 0.006318 -0.936354
vn -0.350942 0.006256 -0.936376
vn -0.351058 0.006379 -0.936332
vn 0.341644 -0.004100 0.939820
vn 0.339556 -0.006345 0.940565
vn 0.343730 -0.001855 0.939067
vn -0.363000 0.008413 -0.931751
vn -0.363000 0.008413 -0.931751
vn -0.362999 0.008413 -0.931751
vn -0.362229 -0.002702 -0.932085
vn -0.362226 -0.002705 -0.932086
vn -0.362232 -0.002700 -0.932084
vn -0.362231 -0.002701 -0.932084
vn -0.362232 -0.002701 -0.932084
vn -0.362230 -0.002701 -0.932085
vn 0.951094 -0.002307 -0.308894
vn 0.951093 -0.002307 -0.308896
vn 0.951095 -0.002306 -0.308891
vn 0.362227 0.002702 0.932086
vn 0.362230 0.002702 0.932085
vn 0.362223 0.002702 0.932088
vn -0.951093 0.002785 0.308891
vn -0.951092 0.002784 0.308895
vn -0.951095 0.002786 0.308887
vn -0.077752 0.996711 0.022839
vn -0.077752 0.996711 0.022838
vn -0.077751 0.996711 0.022839
vn -0.001738 -0.999994 0.002986
vn -0.001738 -0.999994 0.002986
vn -0.001738 -0.999994 0.002986
vn -0.377420 -0.000538 -0.926042
vn -0.362218 0.001656 -0.932092
vn -0.392520 -0.002731 -0.919739
vn 0.928750 -0.002636 -0.370696
vn 0.932089 -0.001364 -0.362228
vn 0.925334 -0.003907 -0.379134
vn 0.377421 0.004869 0.926029
vn 0.362230 0.007248 0.932061
vn 0.392509 0.002489 0.919745
vn -0.928857 0.002859 0.370428
vn -0.932085 0.004075 0.362217
vn -0.925555 0.001643 0.378610
vn 0.150446 0.967396 0.203744
vn 0.150449 0.967395 0.203746
vn 0.150444 0.967396 0.203743
vn -0.001539 -0.999993 0.003496
vn -0.001539 -0.999993 0.003496
vn -0.001539 -0.999993 0.003496
vn 0.925628 -0.120694 -0.358673
vn 0.924260 -0.139383 -0.355411
vn 0.926661 -0.101960 -0.361806
vn 0.162223 0.982594 -0.090513
vn 0.159070 0.983186 -0.089684
vn 0.165374 0.981992 -0.091341
vn -0.928911 0.092288 0.358619
vn -0.929013 0.091406 0.358581
vn -0.928808 0.093170 0.358658
vn -0.166946 -0.981668 0.091961
vn -0.167088 -0.981637 0.092034
vn -0.166804 -0.981699 0.091889
vn -0.360957 -0.063377 -0.930427
vn -0.362281 -0.061569 -0.930033
vn -0.359630 -0.065185 -0.930815
vn 0.353605 0.057487 0.933627
vn 0.363566 0.065486 0.929264
vn 0.343580 0.049477 0.937819
vn 0.932088 -0.002702 -0.362222
vn 0.932088 -0.002703 -0.362221
vn 0.932088 -0.002700 -0.362222
vn 0.002436 0.999997 -0.000951
vn 0.002472 0.999996 -0.000960
vn 0.002400 0.999997 -0.000941
vn -0.931167 0.008323 0.364498
vn -0.930883 0.013940 0.365051
vn -0.931421 0.002706 0.363933
vn -0.002422 -0.999997 0.000944
vn -0.002441 -0.999997 0.000954
vn -0.002402 -0.999997 0.000934
vn -0.345417 -0.000047 -0.938449
vn -0.345419 -0.000045 -0.938449
vn -0.345415 -0.000048 -0.938450
vn 0.353344 -0.002094 0.935491
vn 0.351297 -0.004208 0.936255
vn 0.355388 0.000020 0.934719
vt 0.243701 0.000000
vt 0.443701 0.000000
vt 0.453146 1.495130
vt 0.254156 1.496827
vt 0.499587 -0.000000
vt 0.699587 -0.000000
vt 0.709005 1.496968
vt 0.510158 1.504805
vt 0.860416 0.000000
vt 1.060416 0.000000
vt 1.069861 1.504945
vt 0.870871 1.502965
vt 0.389922 -0.000000
vt 0.589922 -0.000000
vt 0.599340 1.503105
vt 0.400492 1.494991
vt 0.198997 0.219000
vt 0.000000 0.198997
vt 0.020003 0.000000
vt 0.219000 0.020003
vt 0.000000 0.000000
vt 0.200000 0.000000
vt 0.200000 0.200000
vt 0.000000 0.200000
vt 0.328997 0.000000
vt 0.528997 0.000000
vt 0.528997 1.815921
vt 0.328997 1.815921
vt 0.560512 0.000000
vt 0.751403 0.000000
vt 0.751403 1.815921
vt 0.560512 1.815921
vt 0.865139 0.000000
vt 1.065139 0.000000
vt 1.065139 1.815921
vt 0.865139 1.815921
vt 0.109665 0.000000
vt 0.300555 0.000000
vt 0.300555 1.815921
vt 0.109665 1.815921
vt 0.200000 0.190890
vt 0.000000 0.190890
vt 0.200000 0.000000
vt 0.200000 0.190890
vt 0.000000 0.190890
vt 0.670178 0.000000
vt 0.870178 0.000000
vt 0.870178 1.815921
vt 0.670178 1.815921
vt 0.194961 0.000000
vt 0.385851 0.000000
vt 0.385851 1.815921
vt 0.194961 1.815921
vt 0.085296 0.000000
vt 0.285296 0.000000
vt 0.285295 1.815921
vt 0.085296 1.815921
vt 0.353366 0.000000
vt 0.544257 0.000000
vt 0.544257 1.815921
vt 0.353366 1.815921
vt 0.480256 0.190890
vt 0.280256 0.190890
vt 0.280256 0.000000
vt 0.480256 0.000000
vt 0.842152 0.190890
vt 0.642152 0.190890
vt 0.642152 -0.000000
vt 0.842152 -0.000000
vt 0.200000 0.191243
vt 0.000000 0.191243
vt 0.272915 0.000000
vt 0.472915 0.000000
vt 0.472566 1.445381
vt 0.273264 1.462069
vt 0.765922 0.000000
vt 0.965922 0.000000
vt 0.965922 1.462069
vt 0.765922 1.462069
vt 0.396167 0.000000
vt 0.596167 0.000000
vt 0.595818 1.462069
vt 0.396515 1.445381
vt 0.554633 0.000000
vt 0.754633 0.000000
vt 0.754633 1.445381
vt 0.554633 1.445381
vt 0.791673 0.049865
vt 0.949917 -0.072442
vt 1.072224 0.085802
vt 0.913980 0.208109
vt 0.308130 0.000000
vt 0.508130 0.000000
vt 0.508130 0.200000
vt 0.308130 0.200000
vt 0.268071 0.000000
vt 0.468071 0.000000
vt 0.469588 1.473068
vt 0.270026 1.461537
vt 0.694548 -0.000000
vt 0.894548 -0.000000
vt 0.894659 1.461552
vt 0.700967 1.411836
vt 0.645808 -0.000000
vt 0.845808 -0.000000
vt 0.847325 1.411854
vt 0.647763 1.423327
vt 0.463032 -0.000000
vt 0.663032 -0.000000
vt 0.663143 1.423343
vt 0.469451 1.473051
vt 0.199887 0.474696
vt 0.000000 0.467958
vt 0.006738 0.268071
vt 0.206625 0.274809
vt 0.000000 0.560512
vt 0.200000 0.560512
vt 0.200000 0.760512
vt 0.000000 0.760512
vt 0.597068 0.000000
vt 0.797068 0.000000
vt 0.797068 1.820984
vt 0.597068 1.820984
vt 0.438662 -0.000000
vt 0.629552 -0.000000
vt 0.629552 1.820984
vt 0.438662 1.820984
vt 0.194961 -0.000000
vt 0.394961 -0.000000
vt 0.394961 1.820984
vt 0.194961 1.820984
vt 0.389922 0.000000
vt 0.580812 0.000000
vt 0.580812 1.820984
vt 0.389922 1.820984
vt 0.463955 -0.591169
vt 0.663955 -0.591169
vt 0.663955 1.224752
vt 0.463955 1.224752
vt 0.763281 0.284360
vt 0.954171 0.284360
vt 0.954171 2.100280
vt 0.763281 2.100280
vt 0.217011 -0.987776
vt 0.417011 -0.987776
vt 0.417011 0.828145
vt 0.217011 0.828145
vt 0.576202 0.097281
vt 0.767093 0.097281
vt 0.767092 1.913202
vt 0.576202 1.913202
vt 0.985730 0.190890
vt 0.785730 0.190890
vt 0.785730 0.000000
vt 0.985730 0.000000
vt 0.381641 0.471438
vt 0.581641 0.471438
vt 0.581641 0.662328
vt 0.381641 0.662328
f 1/1/1 2/2/2 3/3/1
f 4/4/3 1/1/1 3/3/1
f 5/5/4 6/6/5 7/7/4
f 8/8/6 5/5/4 7/7/4
f 9/9/7 10/10/8 11/11/7
f 12/12/9 9/9/7 11/11/7
f 13/13/10 14/14/11 15/15/10
f 16/16/12 13/13/10 15/15/10
f 17/17/13 18/18/14 19/19/13
f 20/20/15 17/17/13 19/19/13
f 21/21/16 22/22/17 23/23/16
f 24/24/18 21/21/16 23/23/16
f 25/25/19 26/26/20 27/27/19
f 28/28/21 25/25/19 27/27/19
f 29/29/22 30/30/23 31/31/22
f 32/32/24 29/29/22 31/31/22
f 33/33/25 34/34/26 35/35/25
f 36/36/27 33/33/25 35/35/25
f 37/37/28 38/38/29 39/39/28
f 40/40/30 37/37/28 39/39/28
f 41/41/31 42/42/32 43/21/31
f 44/43/33 41/41/31 43/21/31
f 45/21/34 46/22/35 47/44/34
f 48/45/36 45/21/34 47/44/34
f 49/46/37 50/47/38 51/48/37
f 52/49/39 49/46/37 51/48/37
f 53/50/40 54/51/41 55/52/40
f 56/53/42 53/50/40 55/52/40
f 57/54/43 58/55/44 59/56/43
f 60/57/45 57/54/43 59/56/43
f 61/58/46 62/59/47 63/60/46
f 64/61/48 61/58/46 63/60/46
f 65/62/49 66/63/50 67/64/49
f 68/65/51 65/62/49 67/64/49
f 69/21/52 70/22/53 71/44/52
f 72/45/54 69/21/52 71/44/52
f 73/66/55 74/67/56 75/68/55
f 76/69/57 73/66/55 75/68/55
f 77/70/58 78/71/59 79/21/58
f 80/43/60 77/70/58 79/21/58
f 81/72/61 82/73/62 83/74/61
f 84/75/63 81/72/61 83/74/61
f 85/76/64 86/77/65 87/78/64
f 88/79/66 85/76/64 87/78/64
f 89/80/67 90/81/68 91/82/67
f 92/83/69 89/80/67 91/82/67
f 93/84/70 94/85/71 95/86/70
f 96/87/72 93/84/70 95/86/70
f 97/88/73 98/89/74 99/90/73
f 100/91/75 97/88/73 99/90/73
f 101/92/76 102/93/77 103/94/76
f 104/95/78 101/92/76 103/94/76
f 105/96/79 106/97/80 107/98/79
f 108/99/81 105/96/79 107/98/79
f 109/100/82 110/101/83 111/102/82
f 112/103/84 109/100/82 111/102/82
f 113/104/85 114/105/86 115/106/85
f 116/107/87 113/104/85 115/106/85
f 117/108/88 118/109/89 119/110/88
f 120/111/90 117/108/88 119/110/88
f 121/112/91 122/113/92 123/114/91
f 124/115/93 121/112/91 123/114/91
f 125/116/94 126/117/95 127/118/94
f 128/119/96 125/116/94 127/118/94
f 129/120/97 130/121/98 131/122/97
f 132/123/99 129/120/97 131/122/97
f 133/124/100 134/125/101 135/126/100
f 136/127/102 133/124/100 135/126/100
f 137/128/103 138/129/104 139/130/103
f 140/131/105 137/128/103 139/130/103
f 141/132/106 142/133/107 143/134/106
f 144/135/108 141/132/106 143/134/106
f 145/41/109 146/42/110 147/21/109
f 148/43/111 145/41/109 147/21/109
f 149/21/112 150/22/113 151/44/112
f 152/45/114 149/21/112 151/44/112
f 153/136/115 154/137/116 155/138/115
f 156/139/117 153/136/115 155/138/115
f 157/140/118 158/141/119 159/142/118
f 160/143/120 157/140/118 159/142/118
f 161/144/121 162/145/122 163/146/121
f 164/147/123 161/144/121 163/146/121
f 165/148/124 166/149/125 167/150/124
f 168/151/126 165/148/124 167/150/124
f 169/152/127 170/153/128 171/154/127
f 172/155/129 169/152/127 171/154/127
f 173/156/130 174/157/131 175/158/130
f 176/159/132 173/156/130 175/158/130
